<svg width="202" height="52" viewBox="0 0 202 52" fill="none" xmlns="http://www.w3.org/2000/svg">
<g clip-path="url(#clip0_3680_49)">
<path d="M32.7051 35.7456L10.5748 37.1196C8.4329 37.1387 6.86014 36.1678 6.82473 34.8156V34.7966L6.82613 34.7775L9.74559 5.2914C9.72244 5.13617 9.41874 5.00817 9.05789 5C5.30916 6.12067 1.16147 7.46603 0.469727 7.86773L1.24452 40.4285C1.27856 41.8392 3.07055 43.3412 6.93231 43.3099L32.9093 43.8736C33.1953 43.8654 33.4349 43.7456 33.5439 43.6298C33.5915 43.5795 33.6038 43.5413 33.6038 43.5291L33.4227 36.0548C33.4213 35.9812 33.1572 35.7511 32.7065 35.7484L32.7051 35.7456Z" fill="white"/>
<path d="M40.9588 8.72415C40.9547 8.5662 40.6456 8.39736 40.15 8.396L35.0409 9.61743H35.0041C34.71 9.61743 34.4254 9.70867 34.296 9.84075C34.2402 9.8993 34.2402 9.94015 34.2416 9.95513L35.6999 40.9077C35.7095 40.9949 36.0431 41.2563 36.4938 41.2563L40.5448 41.2155C40.9316 41.2128 41.1957 41.082 41.306 40.9704C41.3523 40.9227 41.3646 40.886 41.3646 40.8723L40.9588 8.72415Z" fill="white"/>
<path d="M67.071 21.6249C67.0546 21.6249 67.037 21.6249 67.0206 21.6249L57.5065 22.5999C55.4639 22.6189 53.7959 23.1895 52.8086 24.2094C52.1469 24.8943 51.8227 25.7372 51.8459 26.7162L51.8854 28.4197C51.8895 28.5913 52.1891 28.8528 52.5363 28.8541L56.0971 28.8173C56.3055 28.8173 56.5301 28.7207 56.6704 28.575C56.7344 28.5082 56.7725 28.4374 56.7698 28.3857L56.7534 27.6817C56.7357 26.9586 56.9386 26.3717 57.3567 25.9387C57.8837 25.3927 58.7429 25.1122 59.9085 25.1013L61.4172 25.0877C61.4322 25.0877 61.4486 25.0877 61.4636 25.0877C63.4544 25.0877 64.7629 26.0708 64.8024 27.6013L64.8269 28.7234C64.8392 29.3171 64.605 29.8795 64.1475 30.352C63.5306 30.9892 62.5638 31.3773 61.5643 31.3882L57.7135 31.4195C55.6559 31.4372 53.9892 31.9955 53.0211 32.9923C52.3607 33.6718 52.0365 34.5296 52.0583 35.54L52.1278 38.3546C52.1755 40.4122 54.4372 42.8782 57.1797 42.8782C57.1892 42.8782 57.1987 42.8782 57.2096 42.8782L66.6244 42.3444C68.159 42.3349 69.616 41.7344 70.6209 40.6981C71.3876 39.9083 71.796 38.962 71.7743 38.0333V38.0251V38.0169L72.1351 25.2769C72.0793 23.1854 69.9088 21.6235 67.0724 21.6235L67.071 21.6249ZM67.5857 38.4472C66.9798 39.075 66.0348 39.4263 64.925 39.4372L62.6945 39.4617C62.6864 39.4617 62.6768 39.4617 62.6687 39.4617C60.6615 39.4617 59.2399 38.3928 59.2031 36.8568L59.1977 36.4864C59.1773 35.7061 59.4019 35.0498 59.8458 34.5909C60.3415 34.0789 61.0864 33.8148 62.06 33.8066L64.8569 33.7984C64.8678 33.7984 64.88 33.7984 64.8909 33.7984C67.1609 33.7984 68.2053 35.1029 68.2325 36.4006L68.2407 36.7724C68.257 37.4069 68.0296 37.987 67.583 38.4486L67.5857 38.4472Z" fill="white"/>
<path d="M115.881 19.701C115.222 18.7397 114.053 17.5972 112.257 17.6095L102.646 17.6939C100.665 17.7102 99.2817 18.7111 98.4701 19.5485C97.235 20.8231 96.4902 22.581 96.5256 24.1388L96.5733 25.9784C96.5774 26.1745 96.8946 26.4755 97.3059 26.4755L99.7215 26.4564C99.953 26.4537 100.205 26.3461 100.361 26.1813C100.436 26.1024 100.479 26.022 100.476 25.958L100.461 25.1887C100.443 24.4125 100.66 23.782 101.108 23.3191C101.673 22.7349 102.596 22.4312 103.854 22.4163L106.941 22.3945C109.116 22.3727 110.539 23.4321 110.581 25.0933L110.606 26.3066C110.623 26.9452 110.371 27.5525 109.88 28.0618C109.215 28.7495 108.172 29.1662 107.09 29.1743L102.921 29.2125C101.129 29.2247 99.8972 29.6033 99.1551 30.3699C98.4674 31.0793 98.1651 32.1374 98.2046 33.6965L98.2767 36.7481C98.3407 39.4088 99.712 40.7433 102.358 40.7174H102.373L112.614 41.6093C114.471 41.5889 116.137 40.957 117.188 39.8731C117.886 39.1528 118.246 38.2936 118.227 37.388L117.174 23.5655C117.148 22.5729 116.794 21.0355 115.879 19.6997L115.881 19.701ZM112.652 37.2723C112.245 37.6917 111.623 37.8973 110.748 37.9028L108.334 37.93C108.318 37.93 108.302 37.93 108.285 37.93C106.134 37.93 104.609 36.7862 104.569 35.1372L104.56 34.7259C104.543 34.0451 104.788 33.4242 105.265 32.9312C105.924 32.2504 106.964 31.8691 108.197 31.8582L110.674 31.8432C110.691 31.8432 110.709 31.8432 110.727 31.8432C113.155 31.8432 113.195 33.3942 113.229 34.6415L113.24 35.0446C113.258 35.8289 113.202 36.7058 112.651 37.2723H112.652Z" fill="white"/>
<path d="M172.26 35.6641C172.26 35.5987 172.21 35.517 172.127 35.4353C171.948 35.2637 171.647 35.1371 171.421 35.1371C171.417 35.1371 171.413 35.1371 171.409 35.1371L159.805 35.2379C158.781 35.212 158.311 34.6837 158.209 34.1989C158.085 33.6093 158.446 33.0224 159.128 32.701L170.731 27.1699C171.601 26.7287 172.03 25.9334 171.999 24.8087L171.842 18.2303C171.826 17.6952 171.555 17.6979 171.409 17.6993H171.396H171.382L146.466 15.7534C146.15 15.7629 145.832 16.0312 145.835 16.2899V16.3104L145.832 16.3308L144.923 23.4552C144.945 23.7125 145.28 23.974 145.59 23.9699L164.976 23.8038C165.727 23.7942 166.297 24.1374 166.425 24.678C166.522 25.0865 166.35 25.6584 165.576 26.0356L165.555 26.0451L152.813 31.1977C151.921 31.6062 151.643 32.1305 151.669 33.3506L152.211 40.7187C152.216 40.991 152.57 41.3001 152.877 41.3001H152.879L171.558 41.1367C171.765 41.1354 172.053 40.9965 172.229 40.814C172.319 40.72 172.372 40.6234 172.371 40.5539L172.26 35.6641Z" fill="white"/>
<path d="M26.2037 15.4933H26.1901L17.2874 14.7866C14.8608 14.8098 12.8891 15.4239 11.8774 16.471C11.3545 17.0116 11.0984 17.6489 11.1161 18.3652V18.3883L9.60059 30.7947C9.66186 33.0755 10.8466 34.1458 13.6843 34.4821L26.6898 33.1926C29.6038 33.0537 32.5151 31.7833 32.4539 29.26L32.571 18.9616C32.5192 16.8278 30.0246 15.462 26.2037 15.4933ZM28.1427 27.5443C28.1495 28.04 27.9494 28.5138 27.5613 28.9155C26.909 29.5923 25.8129 29.9858 24.5547 29.9954L22.8635 30.0144C22.8403 30.0144 22.8185 30.0144 22.7954 30.0144C19.8977 30.0144 19.2645 28.9183 19.2441 27.995L19.1024 22.0907C19.0888 21.5597 19.274 21.0817 19.6376 20.7059C20.2299 20.0931 21.2648 19.7636 22.6279 19.7527L25.2301 19.7282C27.3597 19.7119 28.701 20.5833 28.7324 22.0009V22.0213L28.1414 27.543L28.1427 27.5443Z" fill="white"/>
<path d="M49.8369 15.9465C49.8314 15.7844 49.5086 15.6101 48.9885 15.6129H48.9762L44.1899 15.2656C43.9053 15.2697 43.6207 15.3623 43.4941 15.4944C43.441 15.5502 43.4423 15.587 43.4423 15.6006L43.3838 43.4472C43.3988 43.5303 43.7269 43.7767 44.1654 43.7767H44.1681L49.3058 43.7291C49.6911 43.7291 49.9567 43.597 50.0683 43.4826C50.1146 43.4349 50.1269 43.3995 50.1269 43.3873V43.3846L49.8355 15.9451L49.8369 15.9465Z" fill="white"/>
<path d="M124.38 11.4463L118.515 11.4912C118.301 11.4953 118.089 11.5525 117.937 11.6478C117.856 11.6996 117.758 11.784 117.755 11.8929L120.251 40.7417C120.254 40.8602 120.602 41.1475 121.042 41.1448L125.092 41.1067C125.461 41.1039 125.718 40.9718 125.837 40.8507C125.888 40.7962 125.918 40.7417 125.917 40.6981L125.229 11.8453C125.221 11.611 124.862 11.4422 124.38 11.4476V11.4463Z" fill="white"/>
<path d="M88.9445 15.1883H88.9336H88.9227L65.3669 13.8062C65.3396 13.8075 65.3015 13.817 65.2525 13.8674C65.1218 14.0022 65.0414 14.2936 65.0483 14.6082L65.1544 19.1916C65.1653 19.6778 65.3206 20.0454 65.5167 20.0604L72.6927 19.2107C73.1176 19.2066 73.5261 19.5021 73.7944 20.0209L73.8312 20.0904L73.4403 46.4895C73.4512 46.7169 73.7767 46.8953 74.1675 46.8885L78.4037 46.8503C78.7128 46.8476 78.9593 46.7741 79.0791 46.6502C79.1322 46.5957 79.1581 46.5331 79.1581 46.4554L78.2512 38.657C78.2444 38.3384 78.3696 38.0361 78.6161 37.7815C79.0083 37.377 79.6783 37.1319 80.4068 37.1265H80.4217L90.2341 37.9721C91.9852 37.9585 93.9065 37.806 94.8965 36.7929C95.4384 36.24 95.6944 35.4584 95.6795 34.4045L95.3281 19.4939C95.2628 16.9653 92.5789 15.1542 88.9418 15.1869L88.9445 15.1883ZM90.6998 33.1217C90.1252 33.7182 89.2114 34.0518 88.1275 34.064L85.7065 34.0831C85.686 34.0831 85.6656 34.0831 85.6452 34.0831C83.6353 34.0831 82.1048 33.0087 82.0749 31.5681L81.8679 22.9268C81.8543 22.3834 82.0653 21.8701 82.4779 21.4425C83.1193 20.778 84.1814 20.3913 85.3892 20.3818L87.8089 20.3586C89.7698 20.3464 91.1014 21.3431 91.1355 22.841L91.3397 31.4768C91.3561 32.1018 91.1341 32.671 90.6984 33.1217H90.6998Z" fill="white"/>
<path d="M201.09 39.9549L200.603 36.5043C200.564 36.1707 200.46 35.912 200.324 35.8044C200.279 35.769 200.235 35.754 200.185 35.7568C198.584 36.1748 195.844 36.7821 195.279 36.2088C195.121 36.0441 194.862 35.7731 195.004 28.6038C195.07 25.2132 195.2 21.8416 195.208 21.636C195.145 19.0529 192.738 17.1288 189.613 17.156L179.657 17.6422C177.641 17.6599 176.267 18.6485 175.468 19.475C174.216 20.7686 173.494 22.5606 173.538 24.2695L173.577 26.323C173.586 26.583 173.934 26.9139 174.313 26.9058L177.819 26.8717C178.032 26.8717 178.26 26.771 178.417 26.6103C178.519 26.5054 178.576 26.387 178.575 26.2889L178.549 25.2935C178.527 24.2777 178.51 23.4757 179.013 22.9582C179.373 22.5892 179.958 22.4149 180.858 22.4094L183.944 22.3754C183.956 22.3754 183.967 22.3754 183.979 22.3754C186.127 22.3754 187.543 23.5424 187.592 25.3562L187.618 26.7042C187.63 27.1876 187.51 27.5498 187.25 27.8099C186.759 28.3015 185.901 28.2811 184.907 28.2566C184.681 28.2511 184.446 28.2457 184.21 28.2457C184.165 28.2457 184.121 28.2457 184.076 28.2457L179.901 28.2797C177.777 28.2974 176.022 28.9143 174.955 30.0159C174.126 30.8737 173.723 31.9808 173.756 33.3084L173.832 36.7072C173.891 39.1637 176.348 41.1463 179.321 41.1463C179.339 41.1463 179.356 41.1463 179.374 41.1463L189.588 41.0551C189.606 41.0551 189.621 41.0551 189.636 41.0551C189.667 41.0551 189.698 41.0537 189.737 41.0551L200.843 40.7229C200.873 40.7174 200.915 40.7011 200.962 40.6411C201.074 40.4995 201.125 40.2326 201.092 39.9589L201.09 39.9549ZM190.518 36.8883C189.863 37.5651 188.88 37.945 187.749 37.9559L185.332 37.9722C185.318 37.9722 185.304 37.9722 185.291 37.9722C183.131 37.9722 181.601 36.7127 181.562 34.8989L181.55 34.4536C181.53 33.6557 181.803 32.9394 182.343 32.3811C183.003 31.6976 184.011 31.3149 185.179 31.304L187.657 31.2809C190.126 31.2605 191.269 32.8101 191.3 34.3542L191.318 34.7968C191.337 35.6056 191.06 36.3273 190.517 36.8897L190.518 36.8883Z" fill="white"/>
<path d="M196.48 19.0103L196.472 18.4752H196.583C196.651 18.4724 196.702 18.4874 196.739 18.5201C196.788 18.5582 196.859 18.6535 196.943 18.8115L197.05 19.0076H197.285L197.135 18.7638C197.067 18.6454 197.005 18.5623 196.957 18.5119C196.927 18.4806 196.896 18.4656 196.856 18.4452C196.956 18.4357 197.04 18.3962 197.1 18.324C197.159 18.2573 197.186 18.1742 197.186 18.0803C197.183 18.0149 197.161 17.9564 197.127 17.8951C197.085 17.8365 197.035 17.7943 196.972 17.7739C196.912 17.7521 196.809 17.7385 196.668 17.7398L196.267 17.7426L196.297 19.0198L196.482 19.0117L196.48 19.0103ZM196.683 17.9087C196.769 17.9087 196.841 17.9169 196.873 17.9305C196.905 17.9482 196.933 17.9659 196.952 17.9972C196.973 18.0258 196.986 18.0626 196.986 18.0966C196.987 18.1592 196.965 18.2001 196.926 18.2355C196.888 18.2736 196.815 18.2927 196.698 18.2954H196.468L196.457 17.9087H196.682H196.683Z" fill="white"/>
<path d="M196.245 19.389C196.419 19.487 196.606 19.5361 196.791 19.5361C196.976 19.5361 197.163 19.4829 197.33 19.3795C197.503 19.2732 197.635 19.1248 197.722 18.9356C197.819 18.7463 197.856 18.5488 197.853 18.3446C197.852 18.1362 197.799 17.9456 197.696 17.7563C197.594 17.5616 197.45 17.42 197.276 17.3219C197.097 17.2212 196.919 17.1694 196.738 17.1694C196.557 17.1694 196.374 17.2294 196.2 17.326C196.027 17.4336 195.899 17.5834 195.804 17.7686C195.707 17.9633 195.669 18.1607 195.669 18.365C195.67 18.5638 195.731 18.7613 195.827 18.9505C195.93 19.1385 196.069 19.2814 196.246 19.3876L196.245 19.389ZM195.964 17.868C196.043 17.7087 196.15 17.5875 196.295 17.5017C196.44 17.4118 196.585 17.3696 196.739 17.3696C196.894 17.3683 197.041 17.4077 197.191 17.4908C197.337 17.5766 197.46 17.6964 197.537 17.8557C197.627 18.011 197.671 18.1744 197.677 18.3459C197.679 18.5189 197.639 18.6796 197.566 18.8389C197.492 18.9968 197.387 19.1208 197.236 19.2079C197.097 19.2978 196.946 19.3427 196.791 19.3427C196.636 19.3427 196.476 19.3032 196.331 19.2147C196.181 19.1316 196.067 19.0104 195.982 18.8552C195.899 18.7 195.854 18.5352 195.854 18.3636C195.845 18.1962 195.885 18.03 195.964 17.8693V17.868Z" fill="white"/>
<path d="M144.324 22.19C144.305 21.9952 144.009 21.7964 143.734 21.8005L133.274 23.5476C132.612 23.5557 132.221 23.7028 132.108 23.2943C132.022 22.9852 132.062 22.1423 132.746 21.855L132.763 21.8482L137.746 21.2599C140.992 20.5804 142.019 18.3119 142.085 17.3723C142.085 17.3723 142.689 14.4664 140.66 13.151C140.235 12.876 139.596 12.4934 138.67 12.2142C136.769 11.6423 134.717 11.4912 132.733 11.7853C131.544 11.9609 130.239 12.3068 129.42 12.9822C128.354 13.8619 127.771 15.1527 127.801 16.268L127.841 17.5847C127.845 17.725 128.108 17.9401 128.451 17.9401L131.071 17.9265C131.264 17.9238 131.474 17.8475 131.604 17.7304C131.667 17.6746 131.701 17.616 131.7 17.5711L131.687 17.0196C131.678 15.5 132.856 15.0452 133.904 15.0356L134.683 15.0193C136.057 15.007 137.477 15.2876 137.492 16.2407C137.509 17.0441 137.227 17.3056 136.315 17.7808L128.817 19.2596C128.05 19.5946 127.672 20.1978 127.699 21.0516L127.665 26.0776C127.762 26.9627 128.635 27.6327 129.668 27.6163L143.948 27.3372C144.227 27.329 144.506 27.1261 144.505 26.93V26.9137L144.508 26.8973L144.323 22.1927L144.324 22.19Z" fill="white"/>
<path d="M133.749 29.2231C130.098 29.1973 127.715 30.3193 127.665 32.0718L127.778 40.532C127.72 42.6045 130.501 43.6476 133.285 43.7619L145.71 44.8213C148.421 44.5449 149.554 43.6653 149.611 41.7916L148.163 31.6007V31.5816C148.18 30.9934 147.937 30.4705 147.437 30.0265C146.47 29.166 144.587 28.6621 142.268 28.6431L133.763 29.2231H133.749ZM136.885 34.7394C137.438 34.9109 137.392 34.1075 137.58 33.759C137.826 33.394 137.968 31.9996 138.354 32.178C139.343 34.4711 138.593 35.2051 141.493 34.3799C143.876 33.6459 140.873 35.6735 140.45 36.3843C140.861 37.2204 141.979 37.8413 142.495 38.6324C139.667 38.5548 139.437 36.8554 138.473 40.434C138.414 40.5797 138.303 41.0099 138.149 40.7077C137.351 38.7945 137.826 37.6057 135.299 38.4582C132.541 39.2479 135.47 37.4328 136.045 36.5327C135.785 35.7089 134.593 35.0811 134.047 34.3132C134.656 34.0926 136.034 34.674 136.888 34.7407L136.885 34.7394Z" fill="white"/>
</g>
<defs>
<clipPath id="clip0_3680_49">
<rect width="201" height="52" fill="white" transform="translate(0.157227)"/>
</clipPath>
</defs>
</svg>
